<svg xmlns="http://www.w3.org/2000/svg" viewBox="0 0 27.65 9.29"><defs><style>.cls-1{fill:#fff;}</style></defs><g id="Camada_2" data-name="Camada 2"><g id="Camada_1-2" data-name="Camada 1"><path class="cls-1" d="M0,9.13V2.75H2V4h0a2.09,2.09,0,0,1,.75-1A2.1,2.1,0,0,1,4,2.63a2.1,2.1,0,0,1,1.63.63A2.54,2.54,0,0,1,6.25,5V9.13H4.18V5.48a1.29,1.29,0,0,0-.26-.85,1,1,0,0,0-.77-.31,1,1,0,0,0-.78.34,1.28,1.28,0,0,0-.29.86V9.13Z"/><path class="cls-1" d="M11,7.12h1.88a2.32,2.32,0,0,1-1,1.58,3.49,3.49,0,0,1-2.07.59A3.19,3.19,0,0,1,7.41,8.4,3.31,3.31,0,0,1,6.55,6a3.43,3.43,0,0,1,.86-2.46A3,3,0,0,1,9.73,2.6,3.06,3.06,0,0,1,12,3.47a3.22,3.22,0,0,1,.85,2.34V6.4H8.57v.13a1.25,1.25,0,0,0,.35.93,1.2,1.2,0,0,0,.91.36,1.43,1.43,0,0,0,.72-.19A1,1,0,0,0,11,7.12Zm-1.2-3A1.09,1.09,0,0,0,9,4.4a1.22,1.22,0,0,0-.36.81h2.32a1.21,1.21,0,0,0-.35-.82A1.09,1.09,0,0,0,9.76,4.08Z"/><path class="cls-1" d="M19.1,3.05l-2,6.08h-2.4l-2-6.08a.23.23,0,0,1,.22-.3H14.6a.22.22,0,0,1,.22.17l1.07,4.47h0L17,2.93a.23.23,0,0,1,.22-.18h1.69A.23.23,0,0,1,19.1,3.05Z"/><path class="cls-1" d="M23.24,7.12h1.87a2.28,2.28,0,0,1-1,1.58,3.47,3.47,0,0,1-2.07.59,3.17,3.17,0,0,1-2.38-.89A3.27,3.27,0,0,1,18.83,6a3.39,3.39,0,0,1,.86-2.46A3,3,0,0,1,22,2.6a3.08,3.08,0,0,1,2.3.87,3.22,3.22,0,0,1,.85,2.34V6.4H20.84v.13a1.29,1.29,0,0,0,.35.93,1.21,1.21,0,0,0,.91.36,1.38,1.38,0,0,0,.72-.19A.94.94,0,0,0,23.24,7.12Zm-1.2-3a1.07,1.07,0,0,0-.8.32,1.23,1.23,0,0,0-.37.81h2.32a1.21,1.21,0,0,0-.34-.82A1.09,1.09,0,0,0,22,4.08Z"/><rect class="cls-1" x="23.61" width="1.74" height="1.74" rx="0.24"/><rect class="cls-1" x="25.92" width="1.74" height="1.74" rx="0.24"/><rect class="cls-1" x="25.92" y="2.3" width="1.74" height="1.74" rx="0.24"/></g></g></svg>